<?xml version="1.0" encoding="UTF-8" standalone="no"?><svg xmlns="http://www.w3.org/2000/svg" xmlns:xlink="http://www.w3.org/1999/xlink" contentScriptType="application/ecmascript" contentStyleType="text/css" height="249px" preserveAspectRatio="none" style="width:1114px;height:249px;" version="1.1" viewBox="0 0 1114 249" width="1114px" zoomAndPan="magnify"><defs><filter height="300%" id="f1fqaiihwf12ny" width="300%" x="-1" y="-1"><feGaussianBlur result="blurOut" stdDeviation="2.0"/><feColorMatrix in="blurOut" result="blurOut2" type="matrix" values="0 0 0 0 0 0 0 0 0 0 0 0 0 0 0 0 0 0 .4 0"/><feOffset dx="4.0" dy="4.0" in="blurOut2" result="blurOut3"/><feBlend in="SourceGraphic" in2="blurOut3" mode="normal"/></filter></defs><g><rect fill="#F8F8F8" filter="url(#f1fqaiihwf12ny)" height="33.9688" rx="12.5" ry="12.5" style="stroke: #383838; stroke-width: 1.5;" width="47" x="588" y="107.8281"/><text fill="#000000" font-family="sans-serif" font-size="12" lengthAdjust="spacingAndGlyphs" textLength="27" x="598" y="128.9668">PW1</text><rect fill="#F8F8F8" filter="url(#f1fqaiihwf12ny)" height="33.9688" rx="12.5" ry="12.5" style="stroke: #383838; stroke-width: 1.5;" width="178" x="685" y="20"/><text fill="#000000" font-family="sans-serif" font-size="12" lengthAdjust="spacingAndGlyphs" textLength="158" x="695" y="41.1387">Recursos da Web no PHP</text><text fill="#000000" font-family="sans-serif" font-size="12" lengthAdjust="spacingAndGlyphs" textLength="68" x="916" y="25.1699">Introdução</text><path d="M863,36.9844 L873,36.9844 C888,36.9844 888,21.0156 903,21.0156 L913,21.0156 " fill="none" style="stroke: #383838; stroke-width: 1.0;"/><text fill="#000000" font-family="sans-serif" font-size="12" lengthAdjust="spacingAndGlyphs" textLength="186" x="916" y="41.1387">Manipulando Método do HTTP</text><path d="M863,36.9844 L873,36.9844 C888,36.9844 888,36.9844 903,36.9844 L913,36.9844 " fill="none" style="stroke: #383838; stroke-width: 1.0;"/><text fill="#000000" font-family="sans-serif" font-size="12" lengthAdjust="spacingAndGlyphs" textLength="104" x="916" y="57.1074">Cookie e Sessão</text><path d="M863,36.9844 L873,36.9844 C888,36.9844 888,52.9531 903,52.9531 L913,52.9531 " fill="none" style="stroke: #383838; stroke-width: 1.0;"/><path d="M635,124.8125 L645,124.8125 C660,124.8125 660,36.9844 675,36.9844 L685,36.9844 " fill="none" style="stroke: #383838; stroke-width: 1.0;"/><rect fill="#F8F8F8" filter="url(#f1fqaiihwf12ny)" height="33.9688" rx="12.5" ry="12.5" style="stroke: #383838; stroke-width: 1.5;" width="134" x="685" y="78.9219"/><text fill="#000000" font-family="sans-serif" font-size="12" lengthAdjust="spacingAndGlyphs" textLength="114" x="695" y="100.0605">Extensões do PHP</text><text fill="#000000" font-family="sans-serif" font-size="12" lengthAdjust="spacingAndGlyphs" textLength="68" x="872" y="76.1074">Introdução</text><path d="M819,95.9063 L829,95.9063 C844,95.9063 844,71.9531 859,71.9531 L869,71.9531 " fill="none" style="stroke: #383838; stroke-width: 1.0;"/><text fill="#000000" font-family="sans-serif" font-size="12" lengthAdjust="spacingAndGlyphs" textLength="124" x="872" y="92.0762">Bibliotecas padrões</text><path d="M819,95.9063 L829,95.9063 C844,95.9063 844,87.9219 859,87.9219 L869,87.9219 " fill="none" style="stroke: #383838; stroke-width: 1.0;"/><text fill="#000000" font-family="sans-serif" font-size="12" lengthAdjust="spacingAndGlyphs" textLength="140" x="872" y="108.0449">Composer e Packagist</text><path d="M819,95.9063 L829,95.9063 C844,95.9063 844,103.8906 859,103.8906 L869,103.8906 " fill="none" style="stroke: #383838; stroke-width: 1.0;"/><text fill="#000000" font-family="sans-serif" font-size="12" lengthAdjust="spacingAndGlyphs" textLength="141" x="872" y="124.0137">Bibliotecas de terceiro</text><path d="M819,95.9063 L829,95.9063 C844,95.9063 844,119.8594 859,119.8594 L869,119.8594 " fill="none" style="stroke: #383838; stroke-width: 1.0;"/><path d="M635,124.8125 L645,124.8125 C660,124.8125 660,95.9063 675,95.9063 L685,95.9063 " fill="none" style="stroke: #383838; stroke-width: 1.0;"/><rect fill="#F8F8F8" filter="url(#f1fqaiihwf12ny)" height="33.9688" rx="12.5" ry="12.5" style="stroke: #383838; stroke-width: 1.5;" width="64" x="685" y="166.75"/><text fill="#000000" font-family="sans-serif" font-size="12" lengthAdjust="spacingAndGlyphs" textLength="44" x="695" y="187.8887">Laravel</text><text fill="#000000" font-family="sans-serif" font-size="12" lengthAdjust="spacingAndGlyphs" textLength="68" x="802" y="139.9824">Introdução</text><path d="M749,183.7344 L759,183.7344 C774,183.7344 774,135.8281 789,135.8281 L799,135.8281 " fill="none" style="stroke: #383838; stroke-width: 1.0;"/><text fill="#000000" font-family="sans-serif" font-size="12" lengthAdjust="spacingAndGlyphs" textLength="36" x="802" y="155.9512">Rotas</text><path d="M749,183.7344 L759,183.7344 C774,183.7344 774,151.7969 789,151.7969 L799,151.7969 " fill="none" style="stroke: #383838; stroke-width: 1.0;"/><text fill="#000000" font-family="sans-serif" font-size="12" lengthAdjust="spacingAndGlyphs" textLength="61" x="802" y="171.9199">Controller</text><path d="M749,183.7344 L759,183.7344 C774,183.7344 774,167.7656 789,167.7656 L799,167.7656 " fill="none" style="stroke: #383838; stroke-width: 1.0;"/><text fill="#000000" font-family="sans-serif" font-size="12" lengthAdjust="spacingAndGlyphs" textLength="37" x="802" y="187.8887">Model</text><path d="M749,183.7344 L759,183.7344 C774,183.7344 774,183.7344 789,183.7344 L799,183.7344 " fill="none" style="stroke: #383838; stroke-width: 1.0;"/><text fill="#000000" font-family="sans-serif" font-size="12" lengthAdjust="spacingAndGlyphs" textLength="56" x="802" y="203.8574">Eloquent</text><path d="M749,183.7344 L759,183.7344 C774,183.7344 774,199.7031 789,199.7031 L799,199.7031 " fill="none" style="stroke: #383838; stroke-width: 1.0;"/><text fill="#000000" font-family="sans-serif" font-size="12" lengthAdjust="spacingAndGlyphs" textLength="97" x="802" y="219.8262">Blade Template</text><path d="M749,183.7344 L759,183.7344 C774,183.7344 774,215.6719 789,215.6719 L799,215.6719 " fill="none" style="stroke: #383838; stroke-width: 1.0;"/><text fill="#000000" font-family="sans-serif" font-size="12" lengthAdjust="spacingAndGlyphs" textLength="83" x="802" y="235.7949">Autenticação</text><path d="M749,183.7344 L759,183.7344 C774,183.7344 774,231.6406 789,231.6406 L799,231.6406 " fill="none" style="stroke: #383838; stroke-width: 1.0;"/><path d="M635,124.8125 L645,124.8125 C660,124.8125 660,183.7344 675,183.7344 L685,183.7344 " fill="none" style="stroke: #383838; stroke-width: 1.0;"/><rect fill="#F8F8F8" filter="url(#f1fqaiihwf12ny)" height="33.9688" rx="12.5" ry="12.5" style="stroke: #383838; stroke-width: 1.5;" width="197" x="341" y="24.9531"/><text fill="#000000" font-family="sans-serif" font-size="12" lengthAdjust="spacingAndGlyphs" textLength="177" x="351" y="46.0918">Programação Back-end Web</text><text fill="#000000" font-family="sans-serif" font-size="12" lengthAdjust="spacingAndGlyphs" textLength="253" x="35" y="30.123">A Web e o protocolo HTTP (client/server)</text><path d="M341,41.9375 L331,41.9375 C316,41.9375 316,25.9688 301,25.9688 L291,25.9688 " fill="none" style="stroke: #383838; stroke-width: 1.0;"/><text fill="#000000" font-family="sans-serif" font-size="12" lengthAdjust="spacingAndGlyphs" textLength="226" x="62" y="46.0918">Integrando serviço ao servidor HTTP</text><path d="M341,41.9375 L331,41.9375 C316,41.9375 316,41.9375 301,41.9375 L291,41.9375 " fill="none" style="stroke: #383838; stroke-width: 1.0;"/><text fill="#000000" font-family="sans-serif" font-size="12" lengthAdjust="spacingAndGlyphs" textLength="278" x="10" y="62.0605">Páginas estáticas versus páginas dinâmicas</text><path d="M341,41.9375 L331,41.9375 C316,41.9375 316,57.9063 301,57.9063 L291,57.9063 " fill="none" style="stroke: #383838; stroke-width: 1.0;"/><path d="M588,124.8125 L578,124.8125 C563,124.8125 563,41.9375 548,41.9375 L538,41.9375 " fill="none" style="stroke: #383838; stroke-width: 1.0;"/><rect fill="#F8F8F8" filter="url(#f1fqaiihwf12ny)" height="33.9688" rx="12.5" ry="12.5" style="stroke: #383838; stroke-width: 1.5;" width="117" x="421" y="78.9219"/><text fill="#000000" font-family="sans-serif" font-size="12" lengthAdjust="spacingAndGlyphs" textLength="97" x="431" y="100.0605">Linguagem PHP</text><text fill="#000000" font-family="sans-serif" font-size="12" lengthAdjust="spacingAndGlyphs" textLength="55" x="313" y="84.0918">Histórico</text><path d="M421,95.9063 L411,95.9063 C396,95.9063 396,79.9375 381,79.9375 L371,79.9375 " fill="none" style="stroke: #383838; stroke-width: 1.0;"/><text fill="#000000" font-family="sans-serif" font-size="12" lengthAdjust="spacingAndGlyphs" textLength="94" x="274" y="100.0605">Características</text><path d="M421,95.9063 L411,95.9063 C396,95.9063 396,95.9063 381,95.9063 L371,95.9063 " fill="none" style="stroke: #383838; stroke-width: 1.0;"/><text fill="#000000" font-family="sans-serif" font-size="12" lengthAdjust="spacingAndGlyphs" textLength="58" x="310" y="116.0293">Recursos</text><path d="M421,95.9063 L411,95.9063 C396,95.9063 396,111.875 381,111.875 L371,111.875 " fill="none" style="stroke: #383838; stroke-width: 1.0;"/><path d="M588,124.8125 L578,124.8125 C563,124.8125 563,95.9063 548,95.9063 L538,95.9063 " fill="none" style="stroke: #383838; stroke-width: 1.0;"/><rect fill="#F8F8F8" filter="url(#f1fqaiihwf12ny)" height="33.9688" rx="12.5" ry="12.5" style="stroke: #383838; stroke-width: 1.5;" width="115" x="423" y="161.7969"/><text fill="#000000" font-family="sans-serif" font-size="12" lengthAdjust="spacingAndGlyphs" textLength="95" x="433" y="182.9355">Sintaxe do PHP</text><text fill="#000000" font-family="sans-serif" font-size="12" lengthAdjust="spacingAndGlyphs" textLength="68" x="302" y="135.0293">Introdução</text><path d="M423,178.7813 L413,178.7813 C398,178.7813 398,130.875 383,130.875 L373,130.875 " fill="none" style="stroke: #383838; stroke-width: 1.0;"/><text fill="#000000" font-family="sans-serif" font-size="12" lengthAdjust="spacingAndGlyphs" textLength="118" x="252" y="150.998">Elementos básicos</text><path d="M423,178.7813 L413,178.7813 C398,178.7813 398,146.8438 383,146.8438 L373,146.8438 " fill="none" style="stroke: #383838; stroke-width: 1.0;"/><text fill="#000000" font-family="sans-serif" font-size="12" lengthAdjust="spacingAndGlyphs" textLength="72" x="298" y="166.9668">Expressões</text><path d="M423,178.7813 L413,178.7813 C398,178.7813 398,162.8125 383,162.8125 L373,162.8125 " fill="none" style="stroke: #383838; stroke-width: 1.0;"/><text fill="#000000" font-family="sans-serif" font-size="12" lengthAdjust="spacingAndGlyphs" textLength="67" x="303" y="182.9355">Sentenças</text><path d="M423,178.7813 L413,178.7813 C398,178.7813 398,178.7813 383,178.7813 L373,178.7813 " fill="none" style="stroke: #383838; stroke-width: 1.0;"/><text fill="#000000" font-family="sans-serif" font-size="12" lengthAdjust="spacingAndGlyphs" textLength="53" x="317" y="198.9043">Funções</text><path d="M423,178.7813 L413,178.7813 C398,178.7813 398,194.75 383,194.75 L373,194.75 " fill="none" style="stroke: #383838; stroke-width: 1.0;"/><text fill="#000000" font-family="sans-serif" font-size="12" lengthAdjust="spacingAndGlyphs" textLength="48" x="322" y="214.873">Objetos</text><path d="M423,178.7813 L413,178.7813 C398,178.7813 398,210.7188 383,210.7188 L373,210.7188 " fill="none" style="stroke: #383838; stroke-width: 1.0;"/><text fill="#000000" font-family="sans-serif" font-size="12" lengthAdjust="spacingAndGlyphs" textLength="74" x="296" y="230.8418">Namespace</text><path d="M423,178.7813 L413,178.7813 C398,178.7813 398,226.6875 383,226.6875 L373,226.6875 " fill="none" style="stroke: #383838; stroke-width: 1.0;"/><path d="M588,124.8125 L578,124.8125 C563,124.8125 563,178.7813 548,178.7813 L538,178.7813 " fill="none" style="stroke: #383838; stroke-width: 1.0;"/><!--
--></g></svg>